<svg xmlns="http://www.w3.org/2000/svg" width="74.571" height="76.335" viewBox="0 0 74.571 76.335">
  <g id="background-report" transform="translate(-50.026 -45.153)">
    <g id="Group_6" data-name="Group 6" transform="translate(50.026 45.153)">
      <path id="Path_201" data-name="Path 201" d="M294.887,379.922l-4.843-3.632-2.421,8.509Z" transform="translate(-244.613 -316.347)" fill="#00a2ff"/>
      <path id="Path_202" data-name="Path 202" d="M102.35,109.378c-.013.012-.028.022-.041.034a.876.876,0,0,1-.072.058L92.068,116.3l0,0,0,0-.01.006a.829.829,0,0,1-.09.051l-.034.015a.786.786,0,0,1-.074.029l-.039.012c-.026.007-.052.013-.079.018l-.034.006a.869.869,0,0,1-.115.009.851.851,0,0,1-.128-.01l-.021,0a.8.8,0,0,1-.1-.024l-.039-.015a.809.809,0,0,1-.081-.033c-.016-.008-.031-.018-.047-.027s-.037-.019-.055-.031c-.047-.032-4.722-3.142-7.628-1.69a6.1,6.1,0,0,1-2.729.556c-3.651,0-7.978-2.137-8.208-2.252a.848.848,0,0,1,.758-1.517c1.784.89,6.953,2.93,9.42,1.7,2.862-1.432,6.593.237,8.348,1.207l3.09-10.858a.911.911,0,0,1,.037-.095c.009-.02.014-.041.024-.061a.863.863,0,0,1,.092-.142l20.221-25.283V55.331h-9.889a.848.848,0,0,1-.848-.848v-9.33H50.026v76.335h64.511V92.16l-12.08,17.1A.835.835,0,0,1,102.35,109.378ZM57.66,51.938H86.922a.848.848,0,0,1,0,1.7H57.66a.848.848,0,1,1,0-1.7Zm0,8.482h44.1a.848.848,0,1,1,0,1.7H57.66a.848.848,0,1,1,0-1.7Zm0,5.089h44.1a.848.848,0,1,1,0,1.7H57.66a.848.848,0,0,1,0-1.7ZM97.524,81.624a.848.848,0,0,1-.848.848H64.445a.848.848,0,1,1,0-1.7H96.676A.848.848,0,0,1,97.524,81.624ZM57.66,70.6H86.922a.848.848,0,1,1,0,1.7H57.66a.848.848,0,1,1,0-1.7Zm0,5.089H79.712a.848.848,0,0,1,0,1.7H57.66a.848.848,0,1,1,0-1.7Zm-.848,11.026a.848.848,0,0,1,.848-.848H96.676a.848.848,0,1,1,0,1.7H57.66A.848.848,0,0,1,56.811,86.713Z" transform="translate(-50.026 -45.153)" fill="#00a2ff"/>
      <path id="Path_203" data-name="Path 203" d="M356.457,47.154v8.12h8.267Z" transform="translate(-300.987 -46.792)" fill="#00a2ff"/>
      <path id="Path_204" data-name="Path 204" d="M305.035,258.527l5.387,4.04L323.54,244l.011-.015,4.821-6.512-4.055-3.059Z" transform="translate(-258.873 -200.157)" fill="#00a2ff"/>
      <path id="Path_205" data-name="Path 205" d="M421.285,196.975l-4.02,5.433,4.033,3.043,4.06-5.432Z" transform="translate(-350.787 -169.492)" fill="#00a2ff"/>
    </g>
  </g>
</svg>
